<?xml version="1.0" encoding="utf-8"?>
<!-- Generator: Adobe Illustrator 16.0.0, SVG Export Plug-In . SVG Version: 6.00 Build 0)  -->
<svg version="1.2" baseProfile="tiny" id="Layer_1" xmlns="http://www.w3.org/2000/svg" xmlns:xlink="http://www.w3.org/1999/xlink"
	 x="0px" y="0px" width="300px" height="300px" viewBox="0 0 300 300" xml:space="preserve">
<text transform="matrix(1 0 0 1 -50.7764 243.3691)" display="none" font-family="'EdwardianScriptITC'" font-size="338.0158">E</text>
<g>
	<path fill="#FFFFFF" d="M299.783,58.517c0,7.373-6.768,11.058-20.301,11.058c-10.674,0-36.037-4.951-76.087-14.854
		c-18.707,10.674-28.058,24.097-28.058,40.271c0,7.814,2.694,13.204,8.087,16.174c7.812-0.66,13.699-0.99,17.66-0.99
		c11.442,0,17.165,1.377,17.165,4.126c0,1.761-3.03,2.641-9.088,2.641c-7.714,0-16.087-1.099-25.118-3.301
		c-12.229,1.761-26.438,6.493-42.631,14.194C100.21,147.534,79.61,173.06,79.61,204.418c0,20.796,11.224,34,33.67,39.611
		c-4.072-6.71-6.107-14.468-6.107-23.271c0-21.676,11.068-41.646,33.21-59.912c22.143-18.263,46.376-27.398,72.706-27.398
		c12.115,0,21.755,2.971,28.914,8.913c7.159,5.942,10.741,13.921,10.741,23.932c0,21.456-11.788,40.795-35.364,58.015
		c-23.576,17.222-50.128,25.829-79.653,25.829c-5.949,0-11.512-0.33-16.69-0.99c10.584,14.194,26.294,21.291,47.134,21.291
		c12.899,0,23.429-1.926,31.589-5.776l1.982-0.33c0.66,0.219,0.993,0.66,0.993,1.32c0,1.54-4.08,3.162-12.236,4.869
		c-8.16,1.704-15.6,2.558-22.323,2.558c-23.042,0-40.624-8.309-52.75-24.922c-16.783-3.741-29.92-10.094-39.408-19.063
		c-9.49-8.967-14.232-19.394-14.232-31.276c0-15.953,6.602-30.89,19.806-44.811c13.204-13.918,30.807-24.453,52.815-31.606
		c13.312-4.399,28.553-7.592,45.718-9.573c-12.214-5.17-18.32-13.369-18.32-24.592c0-14.413,8.913-26.461,26.737-36.145
		c-25.527-6.161-46.6-9.243-63.212-9.243c-32.571,0-60.325,8.144-83.266,24.427C19.121,82.56,7.65,102.254,7.65,125.361
		c0,10.344,3.025,19.202,9.077,26.573c6.05,7.373,13.313,11.058,21.787,11.058c5.831,0,8.747-0.934,8.747-2.806
		c0-0.99-1.047-1.32-3.136-0.99c-5.833,0-8.748-2.695-8.748-8.088c0-3.079,1.292-5.719,3.879-7.922
		c2.584-2.2,5.694-3.301,9.325-3.301c7.04,0,10.563,3.412,10.563,10.233c0,4.513-2.009,8.334-6.024,11.471
		c-4.018,3.136-8.887,4.703-14.606,4.703c-10.233,0-18.955-4.593-26.16-13.781c-7.208-9.186-10.811-20.272-10.811-33.257
		c0-19.476,8.472-37.354,25.417-53.64c20.136-19.365,48.413-29.048,84.834-29.048c20.244,0,47.203,4.126,80.873,12.378
		c15.184-7.37,32.844-11.058,52.979-11.058c14.963,0,27.729,2.009,38.291,6.024C294.502,47.928,299.783,52.797,299.783,58.517z
		 M249.773,164.972c0-7.922-3.141-14.467-9.42-19.64c-6.279-5.171-14.212-7.757-23.795-7.757c-23.685,0-46.819,9.82-69.402,29.461
		c-22.586,19.641-33.876,39.693-33.876,60.159c0,5.942,1.818,11.994,5.454,18.155c6.388,1.21,12.281,1.815,17.681,1.815
		c25.997,0,51.389-8.995,76.177-26.985C237.38,202.19,249.773,183.787,249.773,164.972z M296.317,58.187
		c0-4.291-4.539-8.087-13.617-11.388c-9.077-3.301-19.504-4.951-31.276-4.951c-16.174,0-30.92,3.522-44.232,10.563
		c29.157,9.464,53.694,14.194,73.611,14.194C291.144,66.604,296.317,63.798,296.317,58.187z"/>
</g>
</svg>
